<svg width="156" height="31" viewBox="0 0 156 31" fill="none" xmlns="http://www.w3.org/2000/svg">
<rect width="30.2214" height="31" rx="6" fill="#3576ED"/>
<path d="M5.78825 13.7469C5.84582 14.9752 6.96353 15.1848 7.51519 15.136C11.3288 14.868 19.1432 14.3025 19.8916 14.1856C20.6399 14.0686 20.875 13.4057 20.8989 13.0889C21.2108 11.3829 21.8919 7.67849 22.1222 6.50868C22.3525 5.33886 21.7864 5.09515 21.4746 5.11952C17.2052 5.41198 8.36426 6.02613 7.15541 6.14311C5.94655 6.26009 5.74028 7.11795 5.78825 7.53226C5.76427 9.09201 5.73069 12.5186 5.78825 13.7469Z" fill="white" stroke="white"/>
<path d="M24.5687 6.87431C24.5687 6.05544 23.8491 6.09443 23.4894 6.21629L22.3381 12.1385C22.8657 12.1628 23.993 12.1969 24.2809 12.1385C24.5687 12.08 24.5927 11.7241 24.5687 11.5536V6.87431Z" fill="white"/>
<path d="M17.2292 15.6479L10.9691 16.0866C10.993 16.2572 11.041 16.7007 11.041 17.1102C11.041 17.5196 11.8565 17.5732 12.2643 17.5488C11.8325 19.9616 10.7532 20.254 10.0336 20.8389L9.09821 19.6691C8.81039 19.2012 7.80301 19.9616 8.16279 20.6196L12.4801 25.7375C12.8255 26.0885 13.8473 25.2257 13.1277 24.6408L12.4801 23.7635C16.5097 20.4002 15.6462 17.2564 15.7901 17.1102C15.934 16.9639 16.1355 17.1686 16.6536 17.1102C17.1716 17.0517 17.2532 16.6958 17.2292 16.5252V15.6479Z" fill="white"/>
<path d="M24.5687 6.87431C24.5687 6.05544 23.8491 6.09443 23.4894 6.21629L22.3381 12.1385C22.8657 12.1628 23.993 12.1969 24.2809 12.1385C24.5687 12.08 24.5927 11.7241 24.5687 11.5536V6.87431Z" stroke="white"/>
<path d="M17.2292 15.6479L10.9691 16.0866C10.993 16.2572 11.041 16.7007 11.041 17.1102C11.041 17.5196 11.8565 17.5732 12.2643 17.5488C11.8325 19.9616 10.7532 20.254 10.0336 20.8389L9.09821 19.6691C8.81039 19.2012 7.80301 19.9616 8.16279 20.6196L12.4801 25.7375C12.8255 26.0885 13.8473 25.2257 13.1277 24.6408L12.4801 23.7635C16.5097 20.4002 15.6462 17.2564 15.7901 17.1102C15.934 16.9639 16.1355 17.1686 16.6536 17.1102C17.1716 17.0517 17.2532 16.6958 17.2292 16.5252V15.6479Z" stroke="white"/>
<path d="M35.3665 16.0958C35.3665 14.8358 35.6185 13.7138 36.1225 12.7298C36.6385 11.7458 37.3705 10.9838 38.3185 10.4438C39.2665 9.89184 40.3825 9.61584 41.6665 9.61584C42.7705 9.61584 43.7545 9.82584 44.6185 10.2458C45.4945 10.6538 46.2025 11.2358 46.7425 11.9918C47.2945 12.7478 47.6605 13.6298 47.8405 14.6378H43.6285C43.4365 14.2178 43.1605 13.8938 42.8005 13.6658C42.4525 13.4258 42.0505 13.3058 41.5945 13.3058C40.9225 13.3058 40.3885 13.5578 39.9925 14.0618C39.6085 14.5658 39.4165 15.2438 39.4165 16.0958C39.4165 16.9478 39.6085 17.6258 39.9925 18.1298C40.3885 18.6338 40.9225 18.8858 41.5945 18.8858C42.0505 18.8858 42.4525 18.7718 42.8005 18.5438C43.1605 18.3038 43.4365 17.9738 43.6285 17.5538H47.8405C47.6605 18.5618 47.2945 19.4438 46.7425 20.1998C46.2025 20.9558 45.4945 21.5438 44.6185 21.9638C43.7545 22.3718 42.7705 22.5758 41.6665 22.5758C40.3825 22.5758 39.2665 22.3058 38.3185 21.7658C37.3705 21.2138 36.6385 20.4458 36.1225 19.4618C35.6185 18.4778 35.3665 17.3558 35.3665 16.0958ZM53.2753 9.16584V22.4858H49.2793V9.16584H53.2753ZM59.9041 22.6118C58.8841 22.6118 57.9661 22.4018 57.1501 21.9818C56.3341 21.5618 55.6921 20.9618 55.2241 20.1818C54.7681 19.3898 54.5401 18.4658 54.5401 17.4098C54.5401 16.3538 54.7681 15.4358 55.2241 14.6558C55.6921 13.8638 56.3341 13.2578 57.1501 12.8378C57.9661 12.4178 58.8841 12.2078 59.9041 12.2078C60.9241 12.2078 61.8421 12.4178 62.6581 12.8378C63.4741 13.2578 64.1101 13.8638 64.5661 14.6558C65.0341 15.4358 65.2681 16.3538 65.2681 17.4098C65.2681 18.4658 65.0341 19.3898 64.5661 20.1818C64.1101 20.9618 63.4741 21.5618 62.6581 21.9818C61.8421 22.4018 60.9241 22.6118 59.9041 22.6118ZM59.9041 19.1558C60.2761 19.1558 60.5881 19.0118 60.8401 18.7238C61.0921 18.4238 61.2181 17.9858 61.2181 17.4098C61.2181 16.8338 61.0921 16.4018 60.8401 16.1138C60.5881 15.8138 60.2761 15.6638 59.9041 15.6638C59.5321 15.6638 59.2201 15.8138 58.9681 16.1138C58.7161 16.4018 58.5901 16.8338 58.5901 17.4098C58.5901 17.9858 58.7101 18.4238 58.9501 18.7238C59.2021 19.0118 59.5201 19.1558 59.9041 19.1558ZM77.2694 12.3338V22.4858H73.2734V20.9378C72.9614 21.4178 72.5414 21.8078 72.0134 22.1078C71.4974 22.4078 70.8794 22.5578 70.1594 22.5578C68.9954 22.5578 68.0834 22.1678 67.4234 21.3878C66.7754 20.6078 66.4514 19.5518 66.4514 18.2198V12.3338H70.4294V17.7158C70.4294 18.1958 70.5554 18.5798 70.8074 18.8678C71.0714 19.1438 71.4194 19.2818 71.8514 19.2818C72.2954 19.2818 72.6434 19.1438 72.8954 18.8678C73.1474 18.5798 73.2734 18.1958 73.2734 17.7158V12.3338H77.2694ZM78.5342 17.4098C78.5342 16.3418 78.7142 15.4178 79.0742 14.6378C79.4462 13.8458 79.9502 13.2458 80.5862 12.8378C81.2222 12.4178 81.9362 12.2078 82.7282 12.2078C83.3882 12.2078 83.9522 12.3458 84.4202 12.6218C84.9002 12.8858 85.2662 13.2518 85.5182 13.7198V9.16584H89.5142V22.4858H85.5182V21.0998C85.2662 21.5678 84.9002 21.9398 84.4202 22.2158C83.9522 22.4798 83.3882 22.6118 82.7282 22.6118C81.9362 22.6118 81.2222 22.4078 80.5862 21.9998C79.9502 21.5798 79.4462 20.9798 79.0742 20.1998C78.7142 19.4078 78.5342 18.4778 78.5342 17.4098ZM85.5362 17.4098C85.5362 16.8698 85.3982 16.4498 85.1222 16.1498C84.8462 15.8498 84.4922 15.6998 84.0602 15.6998C83.6282 15.6998 83.2742 15.8498 82.9982 16.1498C82.7222 16.4498 82.5842 16.8698 82.5842 17.4098C82.5842 17.9498 82.7222 18.3698 82.9982 18.6698C83.2742 18.9698 83.6282 19.1198 84.0602 19.1198C84.4922 19.1198 84.8462 18.9698 85.1222 18.6698C85.3982 18.3698 85.5362 17.9498 85.5362 17.4098ZM107.201 9.74184L102.917 22.4858H97.7512L93.4672 9.74184H97.7152L100.343 18.5078L102.953 9.74184H107.201ZM110.112 11.5238C109.416 11.5238 108.858 11.3378 108.438 10.9658C108.018 10.5938 107.808 10.1258 107.808 9.56184C107.808 8.98584 108.018 8.51184 108.438 8.13984C108.858 7.75584 109.416 7.56384 110.112 7.56384C110.796 7.56384 111.348 7.75584 111.768 8.13984C112.188 8.51184 112.398 8.98584 112.398 9.56184C112.398 10.1258 112.188 10.5938 111.768 10.9658C111.348 11.3378 110.796 11.5238 110.112 11.5238ZM112.092 12.3338V22.4858H108.096V12.3338H112.092ZM118.414 22.6118C117.454 22.6118 116.602 22.4558 115.858 22.1438C115.126 21.8318 114.544 21.3998 114.112 20.8478C113.68 20.2958 113.434 19.6718 113.374 18.9758H117.208C117.256 19.2758 117.382 19.4978 117.586 19.6418C117.802 19.7858 118.072 19.8578 118.396 19.8578C118.6 19.8578 118.762 19.8158 118.882 19.7318C119.002 19.6358 119.062 19.5218 119.062 19.3898C119.062 19.1618 118.936 18.9998 118.684 18.9038C118.432 18.8078 118.006 18.6998 117.406 18.5798C116.674 18.4358 116.068 18.2798 115.588 18.1118C115.12 17.9438 114.706 17.6558 114.346 17.2478C113.998 16.8398 113.824 16.2758 113.824 15.5558C113.824 14.9318 113.986 14.3678 114.31 13.8638C114.646 13.3478 115.138 12.9458 115.786 12.6578C116.434 12.3578 117.22 12.2078 118.144 12.2078C119.512 12.2078 120.58 12.5438 121.348 13.2158C122.128 13.8878 122.596 14.7638 122.752 15.8438H119.206C119.146 15.5678 119.02 15.3578 118.828 15.2138C118.636 15.0578 118.378 14.9798 118.054 14.9798C117.85 14.9798 117.694 15.0218 117.586 15.1058C117.478 15.1778 117.424 15.2918 117.424 15.4478C117.424 15.6518 117.55 15.8078 117.802 15.9158C118.054 16.0118 118.456 16.1138 119.008 16.2218C119.74 16.3658 120.358 16.5278 120.862 16.7078C121.366 16.8878 121.804 17.1998 122.176 17.6438C122.548 18.0758 122.734 18.6758 122.734 19.4438C122.734 20.0438 122.56 20.5838 122.212 21.0638C121.864 21.5438 121.36 21.9218 120.7 22.1978C120.052 22.4738 119.29 22.6118 118.414 22.6118ZM126.336 11.5238C125.64 11.5238 125.082 11.3378 124.662 10.9658C124.242 10.5938 124.032 10.1258 124.032 9.56184C124.032 8.98584 124.242 8.51184 124.662 8.13984C125.082 7.75584 125.64 7.56384 126.336 7.56384C127.02 7.56384 127.572 7.75584 127.992 8.13984C128.412 8.51184 128.622 8.98584 128.622 9.56184C128.622 10.1258 128.412 10.5938 127.992 10.9658C127.572 11.3378 127.02 11.5238 126.336 11.5238ZM128.316 12.3338V22.4858H124.32V12.3338H128.316ZM134.945 22.6118C133.925 22.6118 133.007 22.4018 132.191 21.9818C131.375 21.5618 130.733 20.9618 130.265 20.1818C129.809 19.3898 129.581 18.4658 129.581 17.4098C129.581 16.3538 129.809 15.4358 130.265 14.6558C130.733 13.8638 131.375 13.2578 132.191 12.8378C133.007 12.4178 133.925 12.2078 134.945 12.2078C135.965 12.2078 136.883 12.4178 137.699 12.8378C138.515 13.2578 139.151 13.8638 139.607 14.6558C140.075 15.4358 140.309 16.3538 140.309 17.4098C140.309 18.4658 140.075 19.3898 139.607 20.1818C139.151 20.9618 138.515 21.5618 137.699 21.9818C136.883 22.4018 135.965 22.6118 134.945 22.6118ZM134.945 19.1558C135.317 19.1558 135.629 19.0118 135.881 18.7238C136.133 18.4238 136.259 17.9858 136.259 17.4098C136.259 16.8338 136.133 16.4018 135.881 16.1138C135.629 15.8138 135.317 15.6638 134.945 15.6638C134.573 15.6638 134.261 15.8138 134.009 16.1138C133.757 16.4018 133.631 16.8338 133.631 17.4098C133.631 17.9858 133.751 18.4238 133.991 18.7238C134.243 19.0118 134.561 19.1558 134.945 19.1558ZM148.674 12.2618C149.838 12.2618 150.744 12.6518 151.392 13.4318C152.052 14.2118 152.382 15.2678 152.382 16.5998V22.4858H148.404V17.1038C148.404 16.6238 148.272 16.2458 148.008 15.9698C147.756 15.6818 147.414 15.5378 146.982 15.5378C146.538 15.5378 146.19 15.6818 145.938 15.9698C145.686 16.2458 145.56 16.6238 145.56 17.1038V22.4858H141.564V12.3338H145.56V13.8818C145.872 13.4018 146.286 13.0118 146.802 12.7118C147.33 12.4118 147.954 12.2618 148.674 12.2618Z" fill="#25292C"/>
</svg>
